<svg width="54" height="31" viewBox="0 0 54 31" fill="none" xmlns="http://www.w3.org/2000/svg">
<g clip-path="url(#clip0_4_4)">
<path d="M15.0978 30.2163C23.394 30.2163 30.1195 23.4741 30.1195 15.1571C30.1195 6.84019 23.394 0.0979614 15.0978 0.0979614C6.8015 0.0979614 0.0760498 6.84019 0.0760498 15.1571C0.0760498 23.4741 6.8015 30.2163 15.0978 30.2163Z" fill="white"/>
<path d="M53.5011 15.1572C53.5011 18.7233 50.6174 21.6134 47.0613 21.6134C43.5045 21.6134 40.6215 18.7233 40.6215 15.1572C40.6215 11.591 43.5045 8.70093 47.0613 8.70093C50.6174 8.70093 53.5011 11.591 53.5011 15.1572V15.1572Z" stroke="white"/>
</g>
<defs>
<clipPath id="clip0_4_4">
<rect x="0.0760498" y="0.0979614" width="53.745" height="30.1184" rx="10" fill="white"/>
</clipPath>
</defs>
</svg>
